<svg width="94" height="27" viewBox="0 0 94 27" fill="none" xmlns="http://www.w3.org/2000/svg">
<path d="M21.6758 24.9453C19.5078 25.7656 17.0469 26.1758 14.293 26.1758C5.26953 26.1758 0.757812 21.8105 0.757812 13.0801C0.757812 4.81836 5.26953 0.6875 14.293 0.6875C17.0469 0.6875 19.5078 1.09766 21.6758 1.91797V6.13672C19.5078 5.19922 17.1641 4.73047 14.6445 4.73047C8.60938 4.73047 5.5918 7.51367 5.5918 13.0801C5.5918 19.1152 8.60938 22.1328 14.6445 22.1328C17.1641 22.1328 19.5078 21.6641 21.6758 20.7266V24.9453ZM25.6309 26V0.863281H30.2891V9.89844C31.7422 8.32812 33.5996 7.54297 35.8613 7.54297C40.2324 7.54297 42.418 9.81641 42.418 14.3633V26H37.7598V14.3633C37.7598 12.3242 36.7461 11.3047 34.7188 11.3047C33.207 11.3047 31.7305 11.9082 30.2891 13.1152V26H25.6309ZM50.6094 16.7012C50.6094 20.5566 52.1035 22.4844 55.0918 22.4844C58.0801 22.4844 59.5742 20.5566 59.5742 16.7012C59.5742 12.9395 58.0801 11.0586 55.0918 11.0586C52.1035 11.0586 50.6094 12.9395 50.6094 16.7012ZM45.9512 16.7715C45.9512 10.584 48.998 7.49023 55.0918 7.49023C61.1855 7.49023 64.2324 10.584 64.2324 16.7715C64.2324 22.9473 61.1855 26.0352 55.0918 26.0352C49.0215 26.0352 45.9746 22.9473 45.9512 16.7715ZM66.166 7.54297H70.8594L73.25 20.3926L77.5215 7.54297H81.5117L86.1172 20.3926L88.1914 7.54297H93.043L88.2266 26H83.8496L79.5078 12.9043L75.1133 26H70.666L66.166 7.54297Z" fill="#068C52"/>
</svg>
