<svg width="30" height="30" viewBox="0 0 30 30" fill="none" xmlns="http://www.w3.org/2000/svg">
<circle cx="15" cy="15" r="15" fill="#068C52"/>
<path fill-rule="evenodd" clip-rule="evenodd" d="M23 15C23 17.1217 22.1571 19.1566 20.6569 20.6569C19.1566 22.1571 17.1217 23 15 23C12.8783 23 10.8434 22.1571 9.34315 20.6569C7.84285 19.1566 7 17.1217 7 15C7 12.8783 7.84285 10.8434 9.34315 9.34315C10.8434 7.84285 12.8783 7 15 7C17.1217 7 19.1566 7.84285 20.6569 9.34315C22.1571 10.8434 23 12.8783 23 15ZM17 12C17 12.5304 16.7893 13.0391 16.4142 13.4142C16.0391 13.7893 15.5304 14 15 14C14.4696 14 13.9609 13.7893 13.5858 13.4142C13.2107 13.0391 13 12.5304 13 12C13 11.4696 13.2107 10.9609 13.5858 10.5858C13.9609 10.2107 14.4696 10 15 10C15.5304 10 16.0391 10.2107 16.4142 10.5858C16.7893 10.9609 17 11.4696 17 12ZM15 16C14.0426 15.9998 13.1053 16.2745 12.2994 16.7914C11.4936 17.3083 10.853 18.0457 10.454 18.916C11.0167 19.5706 11.7143 20.0958 12.4989 20.4555C13.2836 20.8152 14.1368 21.0009 15 21C15.8632 21.0009 16.7164 20.8152 17.5011 20.4555C18.2857 20.0958 18.9833 19.5706 19.546 18.916C19.147 18.0457 18.5064 17.3083 17.7006 16.7914C16.8947 16.2745 15.9574 15.9998 15 16Z" fill="white"/>
</svg>
