<svg width="240" height="24" viewBox="0 0 240 24" fill="none" xmlns="http://www.w3.org/2000/svg">
<g clip-path="url(#clip0_7_1775)">
<path d="M24 12.0006C23.9996 9.70738 23.3422 7.46232 22.1056 5.53116C20.8689 3.6 19.1048 2.06362 17.0221 1.1039C14.9394 0.144184 12.6254 -0.198683 10.3538 0.115894C8.08235 0.43047 5.94854 1.38932 4.20505 2.87892C2.46156 4.36852 1.18139 6.3265 0.516104 8.52105C-0.149185 10.7156 -0.171736 13.0548 0.451122 15.2618C1.07398 17.4688 2.31616 19.4511 4.03061 20.974C5.74506 22.4969 7.85999 23.4967 10.125 23.8551V15.4693H7.0785V12.0006H10.125V9.35681C10.125 6.34931 11.9167 4.68806 14.6572 4.68806C15.5573 4.70054 16.4551 4.77875 17.3438 4.92206V7.87556H15.8302C15.5723 7.84131 15.31 7.86553 15.0628 7.94643C14.8155 8.02734 14.5896 8.16285 14.4018 8.34293C14.214 8.52301 14.0691 8.74303 13.978 8.9867C13.8868 9.23037 13.8516 9.49144 13.875 9.75056V12.0006H17.2035L16.671 15.4693H13.875V23.8551C16.6978 23.4085 19.2686 21.9691 21.1248 19.796C22.9809 17.6228 24.0005 14.8585 24 12.0006Z" fill="#C9FFBF"/>
</g>
<g clip-path="url(#clip1_7_1775)">
<path d="M96 4.575C95.1 4.95 94.2 5.25 93.15 5.325C94.2 4.725 94.95 3.75 95.325 2.625C94.35 3.225 93.3 3.6 92.175 3.825C91.275 2.85 90 2.25 88.65 2.25C85.95 2.25 83.7 4.425 83.7 7.2C83.7 7.575 83.775 7.95 83.85 8.325C79.725 8.1 76.125 6.15 73.65 3.15C73.2 3.9 72.975 4.725 72.975 5.625C72.975 7.35 73.875 8.85 75.15 9.75C74.325 9.75 73.575 9.525 72.9 9.15V9.225C72.9 11.625 74.625 13.575 76.875 14.025C76.425 14.1 76.05 14.175 75.6 14.175C75.3 14.175 75 14.175 74.7 14.1C75.3 16.05 77.175 17.475 79.275 17.55C77.625 18.9 75.45 19.65 73.125 19.65C72.75 19.65 72.3 19.65 71.925 19.575C74.175 20.925 76.8 21.75 79.575 21.75C88.65 21.75 93.6 14.25 93.6 7.725C93.6 7.5 93.6 7.275 93.6 7.125C94.5 6.375 95.325 5.55 96 4.575Z" fill="#C9FFBF"/>
</g>
<g clip-path="url(#clip2_7_1775)">
<path d="M156 2.775C159 2.775 159.36 2.78625 160.546 2.84025C161.259 2.84867 161.966 2.97984 162.635 3.228C163.124 3.40832 163.566 3.69588 163.928 4.0695C164.302 4.43218 164.589 4.87402 164.77 5.3625C165.018 6.0316 165.149 6.73841 165.158 7.452C165.212 8.64 165.225 9 165.225 12C165.225 15 165.214 15.36 165.16 16.5458C165.151 17.2593 165.02 17.9662 164.772 18.6353C164.585 19.1202 164.298 19.5606 163.93 19.9282C163.563 20.2958 163.122 20.5825 162.638 20.7698C161.968 21.0179 161.262 21.1491 160.548 21.1575C159.362 21.2115 159.006 21.2228 156.002 21.2228C152.999 21.2228 152.642 21.2115 151.457 21.1575C150.743 21.1491 150.036 21.0179 149.367 20.7698C148.879 20.5894 148.437 20.3019 148.074 19.9282C147.7 19.5656 147.413 19.1237 147.233 18.6353C146.984 17.9662 146.853 17.2593 146.845 16.5458C146.789 15.36 146.775 15.0037 146.775 12C146.775 8.99625 146.786 8.64 146.84 7.45425C146.849 6.74066 146.98 6.03385 147.228 5.36475C147.409 4.87606 147.697 4.4342 148.072 4.07175C148.434 3.69813 148.876 3.41057 149.365 3.23025C150.034 2.98209 150.741 2.85092 151.454 2.8425C152.64 2.7885 153 2.775 156 2.775ZM156 0.75C152.945 0.75 152.561 0.76275 151.362 0.8175C150.428 0.83728 149.505 1.01478 148.631 1.3425C147.88 1.62483 147.201 2.06707 146.639 2.6385C146.066 3.20037 145.623 3.88012 145.34 4.6305C145.013 5.5049 144.835 6.42842 144.815 7.362C144.763 8.56125 144.75 8.9445 144.75 12C144.75 15.0555 144.763 15.4388 144.818 16.638C144.837 17.5716 145.015 18.4951 145.343 19.3695C145.625 20.1199 146.069 20.7996 146.641 21.3615C147.203 21.9337 147.882 22.3768 148.633 22.6597C149.507 22.9875 150.431 23.165 151.364 23.1847C152.564 23.2395 152.947 23.2523 156.002 23.2523C159.058 23.2523 159.441 23.2395 160.64 23.1847C161.574 23.165 162.497 22.9875 163.372 22.6597C164.119 22.3702 164.797 21.928 165.364 21.3615C165.93 20.795 166.372 20.1165 166.662 19.3695C166.99 18.4951 167.167 17.5716 167.187 16.638C167.242 15.438 167.255 15.0555 167.255 12C167.255 8.9445 167.242 8.56125 167.187 7.362C167.167 6.42842 166.99 5.5049 166.662 4.6305C166.379 3.88012 165.936 3.20037 165.364 2.6385C164.802 2.06626 164.122 1.62324 163.372 1.34025C162.497 1.01253 161.574 0.83503 160.64 0.81525C159.439 0.76275 159.056 0.75 156 0.75Z" fill="#C9FFBF"/>
<path d="M156 6.2251C154.858 6.2251 153.741 6.5638 152.792 7.19836C151.842 7.83293 151.102 8.73486 150.665 9.7901C150.227 10.8453 150.113 12.0065 150.336 13.1267C150.559 14.247 151.109 15.276 151.916 16.0836C152.724 16.8913 153.753 17.4413 154.873 17.6641C155.994 17.887 157.155 17.7726 158.21 17.3355C159.265 16.8984 160.167 16.1582 160.802 15.2085C161.436 14.2588 161.775 13.1423 161.775 12.0001C161.775 10.4685 161.167 8.99958 160.084 7.91656C159 6.83353 157.532 6.2251 156 6.2251ZM156 15.7501C155.258 15.7501 154.533 15.5302 153.917 15.1181C153.3 14.7061 152.819 14.1204 152.535 13.4352C152.252 12.7499 152.177 11.9959 152.322 11.2685C152.467 10.5411 152.824 9.87289 153.348 9.34845C153.873 8.824 154.541 8.46685 155.268 8.32215C155.996 8.17746 156.75 8.25172 157.435 8.53555C158.12 8.81938 158.706 9.30002 159.118 9.91671C159.53 10.5334 159.75 11.2584 159.75 12.0001C159.75 12.9947 159.355 13.9485 158.652 14.6517C157.948 15.355 156.995 15.7501 156 15.7501Z" fill="#C9FFBF"/>
<path d="M162.005 7.34478C162.751 7.34478 163.355 6.74036 163.355 5.99478C163.355 5.24919 162.751 4.64478 162.005 4.64478C161.26 4.64478 160.655 5.24919 160.655 5.99478C160.655 6.74036 161.26 7.34478 162.005 7.34478Z" fill="#C9FFBF"/>
</g>
<g clip-path="url(#clip3_7_1775)">
<path fill-rule="evenodd" clip-rule="evenodd" d="M228 0.300049C221.4 0.300049 216 5.70005 216 12.3C216 17.625 219.45 22.1251 224.175 23.7001C224.775 23.7751 225 23.475 225 23.1C225 22.8001 225 22.0501 225 21.0751C221.625 21.8251 220.95 19.5001 220.95 19.5001C220.425 18.1501 219.6 17.7751 219.6 17.7751C218.475 17.0251 219.675 17.0251 219.675 17.0251C220.875 17.1001 221.55 18.225 221.55 18.225C222.6 20.0251 224.325 19.5001 225.075 19.2001C225.15 18.4501 225.525 17.9251 225.825 17.625C223.125 17.3251 220.35 16.2751 220.35 11.7001C220.35 10.425 220.8 9.30005 221.55 8.47505C221.4 8.17505 221.025 6.97505 221.7 5.32505C221.7 5.32505 222.675 5.02505 225 6.52505C225.975 6.22505 226.95 6.15005 228 6.15005C229.05 6.15005 230.025 6.30005 231 6.52505C233.325 4.95005 234.3 5.25005 234.3 5.25005C234.975 6.90005 234.525 8.10005 234.45 8.40005C235.2 9.22505 235.65 10.2751 235.65 11.625C235.65 16.2001 232.875 17.25 230.175 17.5501C230.625 17.9251 231 18.6751 231 19.8001C231 21.375 231 22.725 231 23.1C231 23.4001 231.225 23.7751 231.825 23.7001C236.55 22.1251 240 17.625 240 12.3C240 5.70005 234.6 0.300049 228 0.300049Z" fill="#C9FFBF"/>
</g>
<defs>
<clipPath id="clip0_7_1775">
<rect width="24" height="24" fill="white"/>
</clipPath>
<clipPath id="clip1_7_1775">
<rect width="24" height="24" fill="white" transform="translate(72)"/>
</clipPath>
<clipPath id="clip2_7_1775">
<rect width="24" height="24" fill="white" transform="translate(144)"/>
</clipPath>
<clipPath id="clip3_7_1775">
<rect width="24" height="24" fill="white" transform="translate(216)"/>
</clipPath>
</defs>
</svg>
