<svg width="80" height="16" viewBox="0 0 80 16" fill="none" xmlns="http://www.w3.org/2000/svg">
<path fill-rule="evenodd" clip-rule="evenodd" d="M6.73101 1.76301C7.12833 0.53082 8.87167 0.530819 9.26899 1.76301L10.374 5.19003L13.9608 5.19003C15.25 5.19003 15.7886 6.83767 14.7484 7.5992L11.838 9.72997L12.9476 13.1712C13.3443 14.4014 11.9339 15.4198 10.891 14.6562L8 12.5397L5.10902 14.6562C4.06607 15.4198 2.65572 14.4014 3.05241 13.1712L4.16204 9.72997L1.25157 7.5992C0.211365 6.83767 0.750019 5.19003 2.03919 5.19003H5.62595L6.73101 1.76301Z" fill="#FF9E2A"/>
<path fill-rule="evenodd" clip-rule="evenodd" d="M22.731 1.76301C23.1283 0.53082 24.8717 0.530819 25.269 1.76301L26.374 5.19003L29.9608 5.19003C31.25 5.19003 31.7886 6.83767 30.7484 7.5992L27.838 9.72997L28.9476 13.1712C29.3443 14.4014 27.9339 15.4198 26.891 14.6562L24 12.5397L21.109 14.6562C20.0661 15.4198 18.6557 14.4014 19.0524 13.1712L20.162 9.72997L17.2516 7.5992C16.2114 6.83767 16.75 5.19003 18.0392 5.19003H21.626L22.731 1.76301Z" fill="#FF9E2A"/>
<path fill-rule="evenodd" clip-rule="evenodd" d="M38.731 1.76301C39.1283 0.53082 40.8717 0.530819 41.269 1.76301L42.374 5.19003L45.9608 5.19003C47.25 5.19003 47.7886 6.83767 46.7484 7.5992L43.838 9.72997L44.9476 13.1712C45.3443 14.4014 43.9339 15.4198 42.891 14.6562L40 12.5397L37.109 14.6562C36.0661 15.4198 34.6557 14.4014 35.0524 13.1712L36.162 9.72997L33.2516 7.5992C32.2114 6.83767 32.75 5.19003 34.0392 5.19003H37.626L38.731 1.76301Z" fill="#FF9E2A"/>
<path fill-rule="evenodd" clip-rule="evenodd" d="M54.731 1.76301C55.1283 0.53082 56.8717 0.530819 57.269 1.76301L58.374 5.19003L61.9608 5.19003C63.25 5.19003 63.7886 6.83767 62.7484 7.5992L59.838 9.72997L60.9476 13.1712C61.3443 14.4014 59.9339 15.4198 58.891 14.6562L56 12.5397L53.109 14.6562C52.0661 15.4198 50.6557 14.4014 51.0524 13.1712L52.162 9.72997L49.2516 7.5992C48.2114 6.83767 48.75 5.19003 50.0392 5.19003H53.626L54.731 1.76301Z" fill="#FF9E2A"/>
<path fill-rule="evenodd" clip-rule="evenodd" d="M70.731 1.76301C71.1283 0.53082 72.8717 0.530819 73.269 1.76301L74.3741 5.19003L77.9608 5.19003C79.25 5.19003 79.7886 6.83767 78.7484 7.5992L75.838 9.72997L76.9476 13.1712C77.3443 14.4014 75.9339 15.4198 74.891 14.6562L72 12.5397L69.109 14.6562C68.0661 15.4198 66.6557 14.4014 67.0524 13.1712L68.1621 9.72997L65.2516 7.5992C64.2114 6.83767 64.75 5.19003 66.0392 5.19003H69.626L70.731 1.76301ZM73.1051 5.59922L72 2.1722L70.895 5.59922C70.7174 6.15003 70.2047 6.52337 69.626 6.52337H66.0392L68.9497 8.65413C69.4134 8.99365 69.6074 9.59213 69.431 10.1392L68.3214 13.5804L71.2124 11.4639C71.6814 11.1206 72.3187 11.1206 72.7876 11.4639L75.6786 13.5804L74.569 10.1392C74.3926 9.59213 74.5866 8.99365 75.0503 8.65413L77.9608 6.52337H74.3741C73.7953 6.52337 73.2827 6.15003 73.1051 5.59922Z" fill="#FF9E2A"/>
</svg>
